<svg width="48" height="48" viewBox="0 0 48 48" fill="none" xmlns="http://www.w3.org/2000/svg">
<path d="M33.2555 36.2947L33.147 36.0873L33.2017 36.0096L33.2564 35.9318C34.2317 35.5333 35.1542 35.0161 36.003 34.392C36.8228 33.7776 37.3719 32.8809 37.6551 31.6953L37.8615 30.7468V6.24668C37.8615 5.65532 37.6849 5.04188 37.3364 4.41788C36.9899 3.78527 36.5479 3.20987 36.026 2.71196C35.5058 2.21056 34.916 1.78669 34.275 1.4534C33.626 1.12316 33.0078 0.959961 32.4135 0.959961H14.8791C14.3195 0.959961 13.7156 1.11356 13.0695 1.42748C12.4214 1.74215 11.8219 2.14856 11.2897 2.6342C10.7601 3.10772 10.3096 3.66289 9.95529 4.27868C9.60585 4.89788 9.43017 5.495 9.43017 6.09308V30.958C9.43017 31.3766 9.54057 31.8134 9.74409 32.2665C9.95529 32.7216 10.2164 33.1468 10.5294 33.5443C10.8423 33.9532 11.187 34.319 11.5537 34.6483C11.9204 34.9776 12.2766 35.2502 12.627 35.4585C12.7959 35.5296 13.106 35.639 13.5457 35.7782C13.9758 35.9164 14.1774 36.0192 14.1447 36.0864L6.96777 46.9785H11.1543L16.3931 39.3859H30.8459L36.0788 46.9785H40.3201L33.2555 36.2947ZM19.4823 3.0518C19.4823 2.87612 19.5659 2.6966 19.7444 2.4998C19.9163 2.30876 20.09 2.2166 20.2676 2.2166H26.9703C27.0375 2.2166 27.1825 2.2838 27.3908 2.42108C27.5972 2.56124 27.7019 2.70044 27.7019 2.83964V5.40476C27.7019 5.58044 27.6135 5.74172 27.4417 5.87516C27.2651 6.01916 27.1057 6.09212 26.9713 6.09212H20.2177L20.0046 5.92604C19.8807 5.84326 19.767 5.74628 19.6657 5.63708C19.6099 5.58934 19.5647 5.53041 19.5331 5.46409C19.5015 5.39777 19.4842 5.32555 19.4823 5.25212V3.0518ZM12.7268 10.2249C12.7268 9.87644 12.8094 9.53468 12.9639 9.20156C13.1195 8.87036 13.322 8.56796 13.5659 8.28476C13.8116 8.00444 14.0996 7.7846 14.4279 7.60892C14.7427 7.43794 15.095 7.34757 15.4532 7.34588H31.7377C32.0468 7.34588 32.3617 7.41884 32.6756 7.55132C32.9905 7.69148 33.2775 7.88732 33.5415 8.12924C33.8046 8.37116 34.011 8.63996 34.1703 8.91836C34.3259 9.191 34.4027 9.49052 34.4027 9.80444V15.3561C34.4027 15.671 34.3182 15.9686 34.1435 16.2681C33.9679 16.5728 33.7371 16.842 33.4628 17.062C33.1913 17.2814 32.8917 17.4635 32.5719 17.6035C32.2785 17.7437 31.9573 17.8159 31.6321 17.8147H15.5579L15.2929 17.7676C15.1841 17.7427 15.0782 17.7064 14.9771 17.6592C14.3867 17.5574 13.8644 17.2416 13.4094 16.7164C12.9543 16.1923 12.7268 15.6182 12.7268 14.9913V10.2249ZM17.5739 31.8499C17.0334 32.4076 16.3566 32.686 15.5579 32.686C14.7543 32.686 14.0987 32.4076 13.5899 31.8499C13.0849 31.2931 12.8324 30.6076 12.8324 29.8041C12.8324 29.0716 13.0955 28.4371 13.6206 27.8976C14.1428 27.3552 14.7889 27.0806 15.5579 27.0806C16.3566 27.0806 17.0324 27.3398 17.5739 27.838C18.1153 28.3497 18.3851 29.015 18.3851 29.8588C18.3851 30.6278 18.1153 31.2931 17.5739 31.8499ZM29.5633 31.8499C29.0238 31.2931 28.7492 30.6076 28.7492 29.8041C28.7492 28.9996 29.0363 28.3497 29.6132 27.838C30.1692 27.3438 30.8891 27.0738 31.6331 27.0806C32.4299 27.0806 33.0884 27.3542 33.5943 27.8976C34.0983 28.4371 34.3556 29.0726 34.3556 29.8041C34.3556 30.6076 34.0916 31.2931 33.5684 31.8499C33.0414 32.4076 32.3819 32.686 31.5755 32.686C30.7748 32.686 30.1028 32.4076 29.5633 31.8499Z" fill="#0076CB"/>
</svg>
