<svg width="47" height="37" viewBox="0 0 47 37" fill="none" xmlns="http://www.w3.org/2000/svg">
<path d="M31 11H38.5M31 18.5H38.5M31 26H38.5M23.5 28.5C22.735 26.9675 21.1675 26 19.455 26H12.545C10.8325 26 9.265 26.9675 8.5 28.5M3.5 1H43.5C44.163 1 44.7989 1.26339 45.2678 1.73223C45.7366 2.20107 46 2.83696 46 3.5V33.5C46 34.163 45.7366 34.7989 45.2678 35.2678C44.7989 35.7366 44.163 36 43.5 36H3.5C2.83696 36 2.20107 35.7366 1.73223 35.2678C1.26339 34.7989 1 34.163 1 33.5V3.5C1 2.83696 1.26339 2.20107 1.73223 1.73223C2.20107 1.26339 2.83696 1 3.5 1ZM21 13.5C21 14.8261 20.4732 16.0979 19.5355 17.0355C18.5979 17.9732 17.3261 18.5 16 18.5C14.6739 18.5 13.4021 17.9732 12.4645 17.0355C11.5268 16.0979 11 14.8261 11 13.5C11 12.1739 11.5268 10.9021 12.4645 9.96447C13.4021 9.02679 14.6739 8.5 16 8.5C17.3261 8.5 18.5979 9.02679 19.5355 9.96447C20.4732 10.9021 21 12.1739 21 13.5Z" stroke="#0076CB" stroke-width="2" stroke-linecap="round" stroke-linejoin="round"/>
</svg>
