<svg width="52" height="52" viewBox="0 0 52 52" fill="none" xmlns="http://www.w3.org/2000/svg">
<path fill-rule="evenodd" clip-rule="evenodd" d="M37.9166 43.3335C39.3532 43.3335 40.7309 42.7628 41.7467 41.747C42.7626 40.7312 43.3333 39.3534 43.3333 37.9168C43.3333 36.4802 42.7626 35.1025 41.7467 34.0867C40.7309 33.0708 39.3532 32.5002 37.9166 32.5002C36.48 32.5002 35.1022 33.0708 34.0864 34.0867C33.0706 35.1025 32.4999 36.4802 32.4999 37.9168C32.4999 39.3534 33.0706 40.7312 34.0864 41.747C35.1022 42.7628 36.48 43.3335 37.9166 43.3335ZM37.9166 45.5002C39.9278 45.5002 41.8567 44.7012 43.2788 43.2791C44.701 41.8569 45.4999 39.9281 45.4999 37.9168C45.4999 35.9056 44.701 33.9768 43.2788 32.5546C41.8567 31.1325 39.9278 30.3335 37.9166 30.3335C35.9054 30.3335 33.9765 31.1325 32.5544 32.5546C31.1322 33.9768 30.3333 35.9056 30.3333 37.9168C30.3333 39.9281 31.1322 41.8569 32.5544 43.2791C33.9765 44.7012 35.9054 45.5002 37.9166 45.5002Z" fill="#0076CB"/>
<path fill-rule="evenodd" clip-rule="evenodd" d="M37.9166 34.125C38.2039 34.125 38.4795 34.2391 38.6826 34.4423C38.8858 34.6455 38.9999 34.921 38.9999 35.2083V37.4682L39.7658 38.2341C39.9632 38.4384 40.0724 38.7121 40.0699 38.9961C40.0674 39.2801 39.9535 39.5519 39.7526 39.7527C39.5518 39.9536 39.2801 40.0675 38.996 40.07C38.712 40.0724 38.4383 39.9633 38.234 39.7659L36.8333 38.3652V35.2083C36.8333 34.921 36.9474 34.6455 37.1506 34.4423C37.3537 34.2391 37.6293 34.125 37.9166 34.125ZM15.1666 24.9167H12.9999V27.0833H15.1666V24.9167ZM12.9999 22.75C12.4253 22.75 11.8742 22.9783 11.4679 23.3846C11.0615 23.7909 10.8333 24.342 10.8333 24.9167V27.0833C10.8333 27.658 11.0615 28.2091 11.4679 28.6154C11.8742 29.0217 12.4253 29.25 12.9999 29.25H15.1666C15.7412 29.25 16.2923 29.0217 16.6986 28.6154C17.105 28.2091 17.3333 27.658 17.3333 27.0833V24.9167C17.3333 24.342 17.105 23.7909 16.6986 23.3846C16.2923 22.9783 15.7412 22.75 15.1666 22.75H12.9999ZM23.8333 24.9167H21.6666V27.0833H23.8333V24.9167ZM21.6666 22.75C21.0919 22.75 20.5408 22.9783 20.1345 23.3846C19.7282 23.7909 19.4999 24.342 19.4999 24.9167V27.0833C19.4999 27.658 19.7282 28.2091 20.1345 28.6154C20.5408 29.0217 21.0919 29.25 21.6666 29.25H23.8333C24.4079 29.25 24.959 29.0217 25.3653 28.6154C25.7716 28.2091 25.9999 27.658 25.9999 27.0833V24.9167C25.9999 24.342 25.7716 23.7909 25.3653 23.3846C24.959 22.9783 24.4079 22.75 23.8333 22.75H21.6666ZM32.4999 24.9167H30.3333V27.0833H32.4999V24.9167ZM30.3333 22.75C29.7586 22.75 29.2075 22.9783 28.8012 23.3846C28.3949 23.7909 28.1666 24.342 28.1666 24.9167V27.0833C28.1666 27.658 28.3949 28.2091 28.8012 28.6154C29.2075 29.0217 29.7586 29.25 30.3333 29.25H32.4999C33.0746 29.25 33.6257 29.0217 34.032 28.6154C34.4383 28.2091 34.6666 27.658 34.6666 27.0833V24.9167C34.6666 24.342 34.4383 23.7909 34.032 23.3846C33.6257 22.9783 33.0746 22.75 32.4999 22.75H30.3333ZM15.1666 33.5833H12.9999V35.75H15.1666V33.5833ZM12.9999 31.4167C12.4253 31.4167 11.8742 31.6449 11.4679 32.0513C11.0615 32.4576 10.8333 33.0087 10.8333 33.5833V35.75C10.8333 36.3246 11.0615 36.8757 11.4679 37.2821C11.8742 37.6884 12.4253 37.9167 12.9999 37.9167H15.1666C15.7412 37.9167 16.2923 37.6884 16.6986 37.2821C17.105 36.8757 17.3333 36.3246 17.3333 35.75V33.5833C17.3333 33.0087 17.105 32.4576 16.6986 32.0513C16.2923 31.6449 15.7412 31.4167 15.1666 31.4167H12.9999ZM23.8333 33.5833H21.6666V35.75H23.8333V33.5833ZM21.6666 31.4167C21.0919 31.4167 20.5408 31.6449 20.1345 32.0513C19.7282 32.4576 19.4999 33.0087 19.4999 33.5833V35.75C19.4999 36.3246 19.7282 36.8757 20.1345 37.2821C20.5408 37.6884 21.0919 37.9167 21.6666 37.9167H23.8333C24.4079 37.9167 24.959 37.6884 25.3653 37.2821C25.7716 36.8757 25.9999 36.3246 25.9999 35.75V33.5833C25.9999 33.0087 25.7716 32.4576 25.3653 32.0513C24.959 31.6449 24.4079 31.4167 23.8333 31.4167H21.6666Z" fill="#0076CB"/>
<path fill-rule="evenodd" clip-rule="evenodd" d="M8.66667 13C8.66667 12.7127 8.7808 12.4371 8.98397 12.234C9.18713 12.0308 9.46268 11.9167 9.75 11.9167H15.1667V9.75H9.75C8.88805 9.75 8.0614 10.0924 7.4519 10.7019C6.84241 11.3114 6.5 12.138 6.5 13V39C6.5 39.862 6.84241 40.6886 7.4519 41.2981C8.0614 41.9076 8.88805 42.25 9.75 42.25H31.6929C31.2309 41.5883 30.878 40.8568 30.6475 40.0833H9.75C9.46268 40.0833 9.18713 39.9692 8.98397 39.766C8.7808 39.5629 8.66667 39.2873 8.66667 39V13ZM36.8333 30.4092C37.5519 30.3064 38.2814 30.3064 39 30.4092V13C39 12.138 38.6576 11.3114 38.0481 10.7019C37.4386 10.0924 36.612 9.75 35.75 9.75H32.5V11.9167H35.75C36.0373 11.9167 36.3129 12.0308 36.516 12.234C36.7192 12.4371 36.8333 12.7127 36.8333 13V30.4092ZM17.3333 11.9167H28.7766V9.75H17.3333V11.9167Z" fill="#0076CB"/>
<path fill-rule="evenodd" clip-rule="evenodd" d="M30.3332 9.75H17.3333V13C17.3333 13.2873 17.2191 13.5629 17.0159 13.766C16.8128 13.9692 16.5372 14.0833 16.2499 14.0833C15.9626 14.0833 15.687 13.9692 15.4839 13.766C15.2807 13.5629 15.1666 13.2873 15.1666 13V9.75H9.74992C9.17528 9.75 8.62418 9.97827 8.21785 10.3846C7.81152 10.7909 7.58325 11.342 7.58325 11.9167V17.3333C7.58325 17.908 7.81152 18.4591 8.21785 18.8654C8.62418 19.2717 9.17528 19.5 9.74992 19.5H35.7499C36.3245 19.5 36.8757 19.2717 37.282 18.8654C37.6883 18.4591 37.9166 17.908 37.9166 17.3333V11.9167C37.9166 11.342 37.6883 10.7909 37.282 10.3846C36.8757 9.97827 36.3245 9.75 35.7499 9.75H32.4999V13C32.4999 13.2873 32.3858 13.5629 32.1826 13.766C31.9795 13.9692 31.7039 14.0833 31.4166 14.0833C31.1293 14.0833 30.8537 13.9692 30.6505 13.766C30.4474 13.5629 30.3332 13.2873 30.3332 13V9.75Z" fill="#0076CB"/>
<path fill-rule="evenodd" clip-rule="evenodd" d="M39.0001 19.5002H8.66675V17.3335H39.0001V19.5002Z" fill="#0076CB"/>
<path d="M13 7.58333C13 7.29602 13.1141 7.02047 13.3173 6.8173C13.5205 6.61414 13.796 6.5 14.0833 6.5C14.3707 6.5 14.6462 6.61414 14.8494 6.8173C15.0525 7.02047 15.1667 7.29602 15.1667 7.58333V11.9167C15.1667 12.204 15.0525 12.4795 14.8494 12.6827C14.6462 12.8859 14.3707 13 14.0833 13C13.796 13 13.5205 12.8859 13.3173 12.6827C13.1141 12.4795 13 12.204 13 11.9167V7.58333ZM28.1667 7.58333C28.1667 7.29602 28.2808 7.02047 28.484 6.8173C28.6871 6.61414 28.9627 6.5 29.25 6.5C29.5373 6.5 29.8129 6.61414 30.016 6.8173C30.2192 7.02047 30.3333 7.29602 30.3333 7.58333V11.9167C30.3333 12.204 30.2192 12.4795 30.016 12.6827C29.8129 12.8859 29.5373 13 29.25 13C28.9627 13 28.6871 12.8859 28.484 12.6827C28.2808 12.4795 28.1667 12.204 28.1667 11.9167V7.58333Z" fill="#0076CB"/>
</svg>
