<svg width="20" height="24" viewBox="0 0 20 24" fill="none" xmlns="http://www.w3.org/2000/svg">
<path d="M16 19.1045C16 19.1045 20 9.55224 20 4.77612C20 0 17.3333 0 17.3333 0H16C16 0 14.6667 0 14.6667 1.19403C14.6667 2.38806 16 2.38806 16 4.77612C16 7.16418 12 9.55224 12 13.1343C12 16.7164 16 19.1045 16 19.1045ZM9.33333 17.9104C10.6667 17.9104 14.6667 20.8955 14.6667 20.8955C15.0667 21.1343 14.9333 21.4925 14.6667 21.8507C14.6667 21.8507 13.3333 24 10.6667 24H2.66667C1.2 24 0 22.9254 0 21.6119V20.4179C0 19.1045 1.2 18.0299 2.66667 18.0299H9.33333V17.9104Z" fill="#C4C4C4"/>
</svg>
