<svg width="30" height="30" viewBox="0 0 30 30" fill="none" xmlns="http://www.w3.org/2000/svg">
<path d="M20.5125 6.76252C21.4875 5.78752 21.4875 4.20002 20.5125 3.22502C19.5375 2.25002 17.95 2.25002 16.975 3.22502C16 4.20002 16 5.78752 16.975 6.76252C17.9625 7.75002 19.5375 7.75002 20.5125 6.76252ZM22.5 20V10C22.5 9.31252 23.0625 8.75002 23.75 8.75002C24.4375 8.75002 25 9.31252 25 10V20C25 23.45 22.2 26.25 18.75 26.25H12.5C11.8125 26.25 11.25 25.6875 11.25 25C11.25 24.3125 11.8125 23.75 12.5 23.75H18.75C20.825 23.75 22.5 22.075 22.5 20ZM5.9 24.1875L10.6125 19.475C11.075 19.0125 11.7125 18.75 12.375 18.75H15.625V14.15C14.2625 15.2625 12.3 16.275 10.375 16.675C9.5375 16.85 8.75 16.225 8.75 15.375C8.75 14.7125 9.2375 14.175 9.9 14.0625C11.675 13.7625 13.5 12.8 14.5875 11.6L16.3375 9.66252C16.575 9.40002 16.875 9.18752 17.2 9.03752C17.5625 8.86252 17.975 8.75002 18.4 8.75002H18.4375C19.9875 8.75002 21.25 10.0125 21.25 11.5625V18.75C21.25 20.825 19.575 22.5 17.5 22.5H11.1625L7.6875 25.975C7.2 26.4625 6.3875 26.4625 5.9 25.975C5.4 25.4875 5.4 24.6875 5.9 24.1875Z" fill="white"/>
</svg>
