<svg width="50" height="50" viewBox="0 0 50 50" fill="none" xmlns="http://www.w3.org/2000/svg">
<path d="M32.8125 4.6875H17.1875C15.1163 4.68998 13.1306 5.51388 11.666 6.97847C10.2014 8.44306 9.37748 10.4288 9.375 12.5V31.25C9.3808 32.9294 9.9287 34.562 10.9372 35.9049C11.9456 37.2479 13.3607 38.2293 14.9719 38.7031L12.1391 45.3125H15.5391L18.2172 39.0625H31.7828L34.4609 45.3125H37.8609L35.0281 38.7031C36.6393 38.2293 38.0544 37.2479 39.0628 35.9049C40.0713 34.562 40.6192 32.9294 40.625 31.25V12.5C40.6225 10.4288 39.7986 8.44306 38.334 6.97847C36.8694 5.51388 34.8837 4.68998 32.8125 4.6875V4.6875ZM17.1875 7.8125H32.8125C33.7788 7.81537 34.7205 8.1173 35.5084 8.67684C36.2962 9.23637 36.8915 10.0261 37.2125 10.9375H12.7875C13.1085 10.0261 13.7038 9.23637 14.4916 8.67684C15.2795 8.1173 16.2212 7.81537 17.1875 7.8125V7.8125ZM37.5 29.6875H32.8125V32.8125H37.2125C36.8915 33.7239 36.2962 34.5136 35.5084 35.0732C34.7205 35.6327 33.7788 35.9346 32.8125 35.9375H17.1875C16.2212 35.9346 15.2795 35.6327 14.4916 35.0732C13.7038 34.5136 13.1085 33.7239 12.7875 32.8125H17.1875V29.6875H12.5V26.5625H37.5V29.6875ZM37.5 23.4375H12.5V14.0625H37.5V23.4375Z" fill="black"/>
</svg>
